<svg width="162" height="41" viewBox="0 0 162 41" fill="none" xmlns="http://www.w3.org/2000/svg">
<path d="M151.938 17V7.20001H156.389C157.453 7.20001 158.391 7.40535 159.203 7.81601C160.015 8.21735 160.65 8.78201 161.107 9.51001C161.565 10.238 161.793 11.1013 161.793 12.1C161.793 13.0893 161.565 13.9527 161.107 14.69C160.65 15.418 160.015 15.9873 159.203 16.398C158.391 16.7993 157.453 17 156.389 17H151.938ZM154.205 15.138H156.277C156.931 15.138 157.495 15.0167 157.971 14.774C158.457 14.522 158.83 14.1673 159.091 13.71C159.362 13.2527 159.497 12.716 159.497 12.1C159.497 11.4747 159.362 10.938 159.091 10.49C158.83 10.0327 158.457 9.68268 157.971 9.44001C157.495 9.18801 156.931 9.06201 156.277 9.06201H154.205V15.138Z" fill="white"/>
<path d="M144.631 11.148H149.349V12.912H144.631V11.148ZM144.799 15.18H150.133V17H142.545V7.20001H149.951V9.02001H144.799V15.18Z" fill="white"/>
<path d="M132.523 17V15.53L138.585 8.22201L138.865 9.04801H132.635V7.20001H140.881V8.67001L134.833 15.978L134.553 15.152H141.091V17H132.523Z" fill="white"/>
<path d="M128.559 17V7.20001H130.827V17H128.559Z" fill="white"/>
<path d="M117.252 17V7.20001H119.128L124.91 14.256H124V7.20001H126.24V17H124.378L118.582 9.94401H119.492V17H117.252Z" fill="white"/>
<path d="M110.2 17.168C109.426 17.168 108.707 17.042 108.044 16.79C107.391 16.538 106.822 16.1833 106.336 15.726C105.86 15.2686 105.487 14.732 105.216 14.116C104.955 13.5 104.824 12.828 104.824 12.1C104.824 11.372 104.955 10.7 105.216 10.084C105.487 9.46798 105.865 8.93132 106.35 8.47398C106.836 8.01665 107.405 7.66198 108.058 7.40998C108.712 7.15798 109.421 7.03198 110.186 7.03198C110.961 7.03198 111.67 7.15798 112.314 7.40998C112.968 7.66198 113.532 8.01665 114.008 8.47398C114.494 8.93132 114.872 9.46798 115.142 10.084C115.413 10.6906 115.548 11.3626 115.548 12.1C115.548 12.828 115.413 13.5046 115.142 14.13C114.872 14.746 114.494 15.2826 114.008 15.74C113.532 16.188 112.968 16.538 112.314 16.79C111.67 17.042 110.966 17.168 110.2 17.168ZM110.186 15.236C110.625 15.236 111.026 15.1613 111.39 15.012C111.764 14.8626 112.09 14.648 112.37 14.368C112.65 14.088 112.865 13.7566 113.014 13.374C113.173 12.9913 113.252 12.5666 113.252 12.1C113.252 11.6333 113.173 11.2086 113.014 10.826C112.865 10.4433 112.65 10.112 112.37 9.83198C112.1 9.55198 111.778 9.33732 111.404 9.18798C111.031 9.03865 110.625 8.96398 110.186 8.96398C109.748 8.96398 109.342 9.03865 108.968 9.18798C108.604 9.33732 108.282 9.55198 108.002 9.83198C107.722 10.112 107.503 10.4433 107.344 10.826C107.195 11.2086 107.12 11.6333 107.12 12.1C107.12 12.5573 107.195 12.982 107.344 13.374C107.503 13.7566 107.718 14.088 107.988 14.368C108.268 14.648 108.595 14.8626 108.968 15.012C109.342 15.1613 109.748 15.236 110.186 15.236Z" fill="white"/>
<path d="M95.1445 17V7.20001H99.3865C100.264 7.20001 101.02 7.34468 101.655 7.63401C102.289 7.91401 102.779 8.32001 103.125 8.85201C103.47 9.38401 103.643 10.0187 103.643 10.756C103.643 11.484 103.47 12.114 103.125 12.646C102.779 13.1687 102.289 13.57 101.655 13.85C101.02 14.13 100.264 14.27 99.3865 14.27H96.4045L97.4125 13.276V17H95.1445ZM101.375 17L98.9245 13.444H101.347L103.825 17H101.375ZM97.4125 13.528L96.4045 12.464H99.2605C99.9605 12.464 100.483 12.3147 100.829 12.016C101.174 11.708 101.347 11.288 101.347 10.756C101.347 10.2147 101.174 9.79468 100.829 9.49601C100.483 9.19735 99.9605 9.04801 99.2605 9.04801H96.4045L97.4125 7.97001V13.528Z" fill="white"/>
<path d="M90.5579 7.20001H92.8259V17H90.5579V7.20001ZM86.1059 17H83.8379V7.20001H86.1059V17ZM90.7259 12.982H85.9379V11.064H90.7259V12.982Z" fill="white"/>
<path d="M78.2611 17.168C77.5051 17.168 76.8004 17.0466 76.1471 16.804C75.5031 16.552 74.9431 16.1973 74.4671 15.74C73.9911 15.2826 73.6177 14.746 73.3471 14.13C73.0857 13.514 72.9551 12.8373 72.9551 12.1C72.9551 11.3626 73.0857 10.686 73.3471 10.07C73.6177 9.45398 73.9911 8.91732 74.4671 8.45998C74.9524 8.00265 75.5171 7.65265 76.1611 7.40998C76.8051 7.15798 77.5097 7.03198 78.2751 7.03198C79.1244 7.03198 79.8897 7.18132 80.5711 7.47998C81.2617 7.76932 81.8404 8.19865 82.3071 8.76798L80.8511 10.112C80.5151 9.72932 80.1417 9.44465 79.7311 9.25798C79.3204 9.06198 78.8724 8.96398 78.3871 8.96398C77.9297 8.96398 77.5097 9.03865 77.1271 9.18798C76.7444 9.33732 76.4131 9.55198 76.1331 9.83198C75.8531 10.112 75.6337 10.4433 75.4751 10.826C75.3257 11.2086 75.2511 11.6333 75.2511 12.1C75.2511 12.5666 75.3257 12.9913 75.4751 13.374C75.6337 13.7566 75.8531 14.088 76.1331 14.368C76.4131 14.648 76.7444 14.8626 77.1271 15.012C77.5097 15.1613 77.9297 15.236 78.3871 15.236C78.8724 15.236 79.3204 15.1426 79.7311 14.956C80.1417 14.76 80.5151 14.466 80.8511 14.074L82.3071 15.418C81.8404 15.9873 81.2617 16.4213 80.5711 16.72C79.8897 17.0186 79.1197 17.168 78.2611 17.168Z" fill="white"/>
<path d="M62.2637 17V7.20001H64.1397L69.9217 14.256H69.0117V7.20001H71.2517V17H69.3897L63.5937 9.94401H64.5037V17H62.2637Z" fill="white"/>
<path d="M55.3213 17V12.996L55.8393 14.368L51.5273 7.20001H53.9353L57.2393 12.702H55.8533L59.1713 7.20001H61.3973L57.0853 14.368L57.5893 12.996V17H55.3213Z" fill="white"/>
<path d="M47.3826 17.168C46.5986 17.168 45.8472 17.0653 45.1286 16.86C44.4099 16.6453 43.8312 16.37 43.3926 16.034L44.1626 14.326C44.5826 14.6246 45.0772 14.872 45.6466 15.068C46.2252 15.2546 46.8086 15.348 47.3966 15.348C47.8446 15.348 48.2039 15.306 48.4746 15.222C48.7546 15.1286 48.9599 15.0026 49.0906 14.844C49.2212 14.6853 49.2866 14.5033 49.2866 14.298C49.2866 14.0366 49.1839 13.8313 48.9786 13.682C48.7732 13.5233 48.5026 13.3973 48.1666 13.304C47.8306 13.2013 47.4572 13.108 47.0466 13.024C46.6452 12.9306 46.2392 12.8186 45.8286 12.688C45.4272 12.5573 45.0586 12.3893 44.7226 12.184C44.3866 11.9786 44.1112 11.708 43.8966 11.372C43.6912 11.036 43.5886 10.6066 43.5886 10.084C43.5886 9.52398 43.7379 9.01532 44.0366 8.55798C44.3446 8.09132 44.8019 7.72265 45.4086 7.45198C46.0246 7.17198 46.7946 7.03198 47.7186 7.03198C48.3346 7.03198 48.9412 7.10665 49.5386 7.25598C50.1359 7.39598 50.6632 7.61065 51.1206 7.89998L50.4206 9.62198C49.9632 9.36065 49.5059 9.16932 49.0486 9.04798C48.5912 8.91732 48.1432 8.85198 47.7046 8.85198C47.2659 8.85198 46.9066 8.90332 46.6266 9.00598C46.3466 9.10865 46.1459 9.24398 46.0246 9.41198C45.9032 9.57065 45.8426 9.75732 45.8426 9.97198C45.8426 10.224 45.9452 10.4293 46.1506 10.588C46.3559 10.7373 46.6266 10.8586 46.9626 10.952C47.2986 11.0453 47.6672 11.1386 48.0686 11.232C48.4792 11.3253 48.8852 11.4326 49.2866 11.554C49.6972 11.6753 50.0706 11.8386 50.4066 12.044C50.7426 12.2493 51.0132 12.52 51.2186 12.856C51.4332 13.192 51.5406 13.6166 51.5406 14.13C51.5406 14.6806 51.3866 15.1846 51.0786 15.642C50.7706 16.0993 50.3086 16.468 49.6926 16.748C49.0859 17.028 48.3159 17.168 47.3826 17.168Z" fill="white"/>
<path d="M106.219 34.58V24.78H111.007C112.239 24.78 113.163 25.0134 113.779 25.48C114.404 25.9467 114.717 26.5627 114.717 27.328C114.717 27.8414 114.591 28.2894 114.339 28.672C114.087 29.0454 113.741 29.3347 113.303 29.54C112.864 29.7454 112.36 29.848 111.791 29.848L112.057 29.274C112.673 29.274 113.219 29.3767 113.695 29.582C114.171 29.778 114.539 30.072 114.801 30.464C115.071 30.856 115.207 31.3367 115.207 31.906C115.207 32.746 114.875 33.404 114.213 33.88C113.55 34.3467 112.575 34.58 111.287 34.58H106.219ZM108.473 32.872H111.119C111.707 32.872 112.15 32.7787 112.449 32.592C112.757 32.396 112.911 32.088 112.911 31.668C112.911 31.2574 112.757 30.954 112.449 30.758C112.15 30.5527 111.707 30.45 111.119 30.45H108.305V28.798H110.727C111.277 28.798 111.697 28.7047 111.987 28.518C112.285 28.322 112.435 28.028 112.435 27.636C112.435 27.2534 112.285 26.9687 111.987 26.782C111.697 26.586 111.277 26.488 110.727 26.488H108.473V32.872Z" fill="white"/>
<path d="M94.2129 34.58L98.5809 24.78H100.821L105.203 34.58H102.823L99.2389 25.928H100.135L96.5369 34.58H94.2129ZM96.3969 32.48L96.9989 30.758H102.039L102.655 32.48H96.3969Z" fill="white"/>
<path d="M86.9961 34.58V24.78H89.2641V32.732H94.1781V34.58H86.9961Z" fill="white"/>
<path d="M79.6895 28.728H84.4075V30.492H79.6895V28.728ZM79.8575 32.76H85.1915V34.58H77.6035V24.78H85.0095V26.6H79.8575V32.76Z" fill="white"/>
<path d="M66.0371 34.58V24.78H70.4891C71.5531 24.78 72.4911 24.9854 73.3031 25.396C74.1151 25.7974 74.7498 26.362 75.2071 27.09C75.6644 27.818 75.8931 28.6814 75.8931 29.68C75.8931 30.6694 75.6644 31.5327 75.2071 32.27C74.7498 32.998 74.1151 33.5674 73.3031 33.978C72.4911 34.3794 71.5531 34.58 70.4891 34.58H66.0371ZM68.3051 32.718H70.3771C71.0304 32.718 71.5951 32.5967 72.0711 32.354C72.5564 32.102 72.9298 31.7474 73.1911 31.29C73.4618 30.8327 73.5971 30.296 73.5971 29.68C73.5971 29.0547 73.4618 28.518 73.1911 28.07C72.9298 27.6127 72.5564 27.2627 72.0711 27.02C71.5951 26.768 71.0304 26.642 70.3771 26.642H68.3051V32.718Z" fill="white"/>
<path d="M58.9854 34.748C58.2107 34.748 57.492 34.622 56.8294 34.37C56.176 34.118 55.6067 33.7633 55.1214 33.306C54.6454 32.8487 54.272 32.312 54.0014 31.696C53.74 31.08 53.6094 30.408 53.6094 29.68C53.6094 28.952 53.74 28.28 54.0014 27.664C54.272 27.048 54.65 26.5113 55.1354 26.054C55.6207 25.5967 56.19 25.242 56.8434 24.99C57.4967 24.738 58.206 24.612 58.9714 24.612C59.746 24.612 60.4554 24.738 61.0994 24.99C61.7527 25.242 62.3174 25.5967 62.7934 26.054C63.2787 26.5113 63.6567 27.048 63.9274 27.664C64.198 28.2707 64.3334 28.9427 64.3334 29.68C64.3334 30.408 64.198 31.0847 63.9274 31.71C63.6567 32.326 63.2787 32.8627 62.7934 33.32C62.3174 33.768 61.7527 34.118 61.0994 34.37C60.4554 34.622 59.7507 34.748 58.9854 34.748ZM58.9714 32.816C59.41 32.816 59.8114 32.7413 60.1754 32.592C60.5487 32.4427 60.8754 32.228 61.1554 31.948C61.4354 31.668 61.65 31.3367 61.7994 30.954C61.958 30.5713 62.0374 30.1467 62.0374 29.68C62.0374 29.2133 61.958 28.7887 61.7994 28.406C61.65 28.0233 61.4354 27.692 61.1554 27.412C60.8847 27.132 60.5627 26.9173 60.1894 26.768C59.816 26.6187 59.41 26.544 58.9714 26.544C58.5327 26.544 58.1267 26.6187 57.7534 26.768C57.3894 26.9173 57.0674 27.132 56.7874 27.412C56.5074 27.692 56.288 28.0233 56.1294 28.406C55.98 28.7887 55.9054 29.2133 55.9054 29.68C55.9054 30.1373 55.98 30.562 56.1294 30.954C56.288 31.3367 56.5027 31.668 56.7734 31.948C57.0534 32.228 57.38 32.4427 57.7534 32.592C58.1267 32.7413 58.5327 32.816 58.9714 32.816Z" fill="white"/>
<path d="M48.8529 34.748C48.0969 34.748 47.3922 34.6267 46.7389 34.384C46.0949 34.132 45.5349 33.7773 45.0589 33.32C44.5829 32.8627 44.2095 32.326 43.9389 31.71C43.6775 31.094 43.5469 30.4173 43.5469 29.68C43.5469 28.9427 43.6775 28.266 43.9389 27.65C44.2095 27.034 44.5829 26.4973 45.0589 26.04C45.5442 25.5827 46.1089 25.2327 46.7529 24.99C47.3969 24.738 48.1015 24.612 48.8669 24.612C49.7162 24.612 50.4815 24.7613 51.1629 25.06C51.8535 25.3493 52.4322 25.7787 52.8989 26.348L51.4429 27.692C51.1069 27.3093 50.7335 27.0247 50.3229 26.838C49.9122 26.642 49.4642 26.544 48.9789 26.544C48.5215 26.544 48.1015 26.6187 47.7189 26.768C47.3362 26.9173 47.0049 27.132 46.7249 27.412C46.4449 27.692 46.2255 28.0233 46.0669 28.406C45.9175 28.7887 45.8429 29.2133 45.8429 29.68C45.8429 30.1467 45.9175 30.5713 46.0669 30.954C46.2255 31.3367 46.4449 31.668 46.7249 31.948C47.0049 32.228 47.3362 32.4427 47.7189 32.592C48.1015 32.7413 48.5215 32.816 48.9789 32.816C49.4642 32.816 49.9122 32.7227 50.3229 32.536C50.7335 32.34 51.1069 32.046 51.4429 31.654L52.8989 32.998C52.4322 33.5673 51.8535 34.0013 51.1629 34.3C50.4815 34.5987 49.7115 34.748 48.8529 34.748Z" fill="white"/>
<path d="M11.3638 26.5239C12.6968 27.8569 14.8597 27.8569 16.1927 26.5239C17.5256 25.1909 17.5256 23.028 16.1927 21.6986L5.85591 11.3619C4.52295 10.0289 2.36003 10.0289 1.02707 11.3619C-0.305897 12.6949 -0.305897 14.8578 1.02707 16.1907L7.14217 22.2915L11.3638 26.5275V26.5239Z" fill="url(#paint0_radial_180_1860)"/>
<path d="M16.1936 1.01797C14.8606 -0.314991 12.6977 -0.314991 11.3647 1.01797L1.02798 11.3547C-0.276239 12.6589 -0.358874 14.7033 0.891452 16.0398L0.945345 16.0973L1.01361 16.1656C1.01361 16.1656 1.02439 16.1764 1.02798 16.18C1.03517 16.1872 1.03876 16.1907 1.04595 16.1943L7.14308 22.2843C3.85918 19.0004 8.26765 13.7655 8.26765 13.7655L16.1936 5.83963C17.5265 4.50667 17.5265 2.34375 16.1936 1.01079V1.01797Z" fill="url(#paint1_linear_180_1860)"/>
<path d="M24.5825 13.7544C23.2495 12.4215 21.0866 12.4215 19.7536 13.7544C18.4207 15.0874 18.4207 17.2503 19.7536 18.5833L30.0904 28.92C31.4233 30.253 33.5863 30.253 34.9192 28.92C36.2522 27.587 36.2522 25.4241 34.9192 24.0912L28.8041 17.9904L24.5825 13.7544Z" fill="url(#paint2_linear_180_1860)"/>
<path d="M19.7536 39.2602C21.0866 40.5931 23.2495 40.5931 24.5825 39.2602L34.9192 28.9234C36.2234 27.6192 36.3061 25.5748 35.0558 24.2383L35.0019 24.1808L34.9336 24.1125C34.9336 24.1125 34.9228 24.1017 34.9192 24.0982C34.9156 24.091 34.9084 24.0874 34.9013 24.0838L28.8041 17.9938C32.088 21.2777 27.6795 26.5126 27.6795 26.5126L19.7536 34.4385C18.4207 35.7715 18.4207 37.9344 19.7536 39.2637V39.2602Z" fill="url(#paint3_linear_180_1860)"/>
<path d="M15.8601 37.8991C15.3139 39.6416 13.46 40.6117 11.721 40.0656C9.97849 39.5195 9.00841 37.6656 9.55453 35.9266L20.247 2.3187C20.7931 0.576151 22.647 -0.393929 24.3896 0.15219C26.1321 0.69831 27.1022 2.55224 26.5561 4.2912L15.8636 37.8955L15.8601 37.8991Z" fill="white"/>
<defs>
<radialGradient id="paint0_radial_180_1860" cx="0" cy="0" r="1" gradientUnits="userSpaceOnUse" gradientTransform="translate(0.656998 12.9176) scale(18.9741 18.9741)">
<stop offset="0.17" stop-color="#4775B6"/>
<stop offset="0.34" stop-color="#4978B5"/>
<stop offset="0.52" stop-color="#5284B5"/>
<stop offset="0.7" stop-color="#6098B4"/>
<stop offset="0.87" stop-color="#74B4B3"/>
<stop offset="1" stop-color="#87CEB3"/>
</radialGradient>
<linearGradient id="paint1_linear_180_1860" x1="3.53941" y1="11.1535" x2="27.5543" y2="11.1535" gradientUnits="userSpaceOnUse">
<stop stop-color="#87CEB3"/>
<stop offset="0.13" stop-color="#74B4B3"/>
<stop offset="0.3" stop-color="#6098B4"/>
<stop offset="0.48" stop-color="#5284B5"/>
<stop offset="0.66" stop-color="#4978B5"/>
<stop offset="0.83" stop-color="#4775B6"/>
</linearGradient>
<linearGradient id="paint2_linear_180_1860" x1="35.918" y1="21.339" x2="18.7548" y2="21.339" gradientUnits="userSpaceOnUse">
<stop stop-color="#8C1C56"/>
<stop offset="0.16" stop-color="#902253"/>
<stop offset="0.37" stop-color="#9C334D"/>
<stop offset="0.61" stop-color="#AF4F42"/>
<stop offset="0.87" stop-color="#CA7634"/>
<stop offset="1" stop-color="#DA8D2C"/>
</linearGradient>
<linearGradient id="paint3_linear_180_1860" x1="32.4078" y1="29.1282" x2="8.39291" y2="29.1282" gradientUnits="userSpaceOnUse">
<stop stop-color="#DA8D2C"/>
<stop offset="0.13" stop-color="#CA7634"/>
<stop offset="0.39" stop-color="#AF4F42"/>
<stop offset="0.63" stop-color="#9C334D"/>
<stop offset="0.84" stop-color="#902253"/>
<stop offset="0.99" stop-color="#8C1C56"/>
</linearGradient>
</defs>
</svg>
